<?xml version="1.0" standalone="no"?>
<!DOCTYPE svg PUBLIC "-//W3C//DTD SVG 20010904//EN"
 "http://www.w3.org/TR/2001/REC-SVG-20010904/DTD/svg10.dtd">
<svg version="1.0" xmlns="http://www.w3.org/2000/svg"
 width="100t" height="100pt" viewBox="0 0 683.000000 678.000000"
 preserveAspectRatio="xMidYMid meet">

<g transform="translate(0.000000,678.000000) scale(0.100000,-0.100000)"
fill="#ede1be" stroke="none">
<path d="M3240 6720 c-872 -54 -1718 -466 -2290 -1115 -391 -444 -663 -989
-775 -1550 -53 -270 -60 -340 -60 -675 1 -334 5 -387 60 -665 64 -324 205
-699 372 -990 322 -561 805 -1022 1374 -1310 448 -227 864 -339 1359 -364 478
-25 942 49 1385 220 143 56 433 201 560 280 532 334 958 809 1231 1374 156
323 249 626 304 990 27 174 38 558 22 750 -67 789 -427 1557 -989 2106 -470
459 -1096 784 -1729 898 -259 46 -575 66 -824 51z m635 -85 c462 -63 879 -211
1285 -455 225 -135 479 -340 657 -532 l48 -51 -52 27 c-29 14 -88 55 -132 91
-156 127 -224 157 -359 157 -84 0 -157 -15 -213 -43 -19 -10 -85 -57 -145
-105 -143 -114 -175 -129 -284 -128 -73 0 -93 4 -138 27 -29 15 -69 42 -90 61
-165 145 -253 187 -401 187 -129 0 -195 -24 -309 -113 -190 -148 -250 -176
-359 -165 -72 8 -145 44 -231 116 -157 131 -225 162 -364 162 -146 0 -209 -25
-358 -146 -139 -113 -176 -130 -280 -130 -109 0 -141 15 -290 134 -124 99
-187 130 -285 140 -136 14 -247 -16 -350 -94 l-50 -38 35 38 c49 51 177 158
295 247 302 225 669 405 1051 517 161 47 437 96 644 115 109 9 560 -3 675 -19z
m-2276 -859 c59 -16 102 -43 204 -128 161 -134 290 -172 456 -133 75 18 145
59 256 150 114 94 171 119 265 120 65 0 84 -4 140 -32 36 -18 102 -63 147
-101 97 -81 158 -116 238 -137 75 -19 145 -19 220 0 79 21 134 52 244 140 118
94 144 110 209 125 115 27 202 -5 357 -130 55 -44 123 -91 152 -105 76 -37
176 -51 262 -38 94 15 161 47 260 127 164 133 238 165 344 152 74 -10 138 -44
252 -136 122 -98 182 -129 281 -143 l76 -11 87 -116 c171 -227 276 -404 409
-690 116 -247 218 -634 254 -955 16 -151 17 -555 0 -700 -53 -461 -180 -851
-420 -1285 -91 -164 -289 -432 -434 -586 -380 -404 -814 -690 -1313 -867 -165
-58 -278 -90 -432 -121 -251 -51 -348 -60 -663 -60 -322 0 -423 9 -684 64
-570 121 -1087 389 -1546 802 -108 97 -109 98 -226 232 -189 217 -333 430
-463 686 -192 377 -295 719 -343 1135 -16 142 -16 558 0 700 46 403 151 755
328 1108 113 225 229 408 378 593 48 60 60 69 108 81 66 17 137 60 234 140 94
78 133 102 192 118 63 18 106 18 171 1z"/>
<path d="M3194 4974 c-84 -56 -267 -252 -380 -409 -97 -134 -189 -307 -199
-378 -9 -55 17 -47 -249 -87 -383 -59 -564 -107 -807 -218 -96 -43 -289 -155
-372 -214 -201 -144 -469 -399 -636 -605 -100 -123 -120 -171 -106 -261 17
-112 75 -181 344 -406 165 -138 550 -446 558 -446 3 0 39 18 81 40 289 151
496 439 562 780 34 177 35 377 5 600 l-5 35 16 -40 c84 -215 115 -516 78 -763
-39 -266 -161 -507 -363 -714 -86 -89 -92 -98 -67 -98 15 0 54 -9 87 -20 104
-35 337 -80 420 -80 43 0 48 -3 80 -47 18 -27 89 -118 157 -203 68 -85 153
-196 188 -247 104 -148 184 -336 184 -430 0 -18 5 -33 11 -33 6 0 42 31 80 69
54 54 79 89 110 155 63 135 99 304 99 465 l0 77 -87 28 c-93 30 -197 78 -208
96 -13 20 16 38 78 49 34 6 173 20 309 31 377 30 559 49 650 66 l83 16 20 -28
c107 -148 151 -201 224 -274 110 -108 205 -180 306 -229 74 -37 202 -78 211
-68 3 3 -6 76 -20 163 -48 312 -60 478 -43 612 l8 62 -45 0 c-141 0 -271 67
-251 130 8 25 146 130 218 167 38 19 65 25 113 24 82 0 145 -27 379 -161 403
-231 690 -363 908 -419 122 -32 268 -48 304 -34 l23 8 -27 40 c-15 22 -85 112
-157 200 -152 189 -210 274 -277 410 -79 162 -93 228 -94 440 0 196 8 246 66
411 63 181 217 455 356 637 25 32 44 60 42 61 -6 5 -245 -87 -334 -128 -293
-136 -739 -432 -960 -637 l-40 -37 -155 29 c-195 36 -279 56 -354 86 -120 47
-133 87 -58 185 63 84 120 118 211 126 l70 7 -22 55 c-51 125 -249 387 -533
707 -176 198 -430 454 -538 542 -83 68 -179 131 -199 131 -8 0 -32 -12 -53
-26z m-451 -1120 c186 -42 308 -166 358 -364 22 -86 16 -336 -9 -425 -70 -245
-177 -377 -359 -445 -119 -44 -327 -36 -474 19 -83 31 -91 40 -80 79 37 127
54 559 31 807 -6 66 -13 156 -17 201 l-6 80 94 22 c197 46 337 54 462 26z
m1228 0 c95 -22 156 -64 192 -134 26 -50 28 -62 25 -140 -6 -109 -39 -178
-111 -224 -32 -21 -28 -31 20 -51 92 -39 165 -133 178 -230 9 -69 -10 -179
-42 -243 -34 -67 -122 -150 -199 -186 -161 -76 -423 -72 -601 9 -51 23 -52 24
-43 55 5 18 16 83 25 145 20 144 19 573 -1 760 -22 205 -27 189 59 209 196 48
374 58 498 30z m-2666 -603 c83 -37 136 -115 143 -212 7 -93 -51 -193 -133
-230 -54 -25 -157 -25 -210 0 -140 65 -179 247 -80 377 57 75 191 106 280 65z"/>
<path d="M2474 3708 c-42 -10 -42 -10 -48 -68 -9 -78 -9 -604 0 -747 8 -132 3
-126 117 -138 194 -21 311 95 348 346 14 98 7 294 -14 359 -38 120 -100 204
-174 236 -47 19 -174 27 -229 12z"/>
<path d="M3689 3708 c-45 -9 -47 -11 -53 -51 -7 -54 -11 -335 -5 -341 6 -7
183 28 224 44 89 34 139 138 115 241 -24 100 -127 139 -281 107z"/>
<path d="M3784 3200 c-28 -4 -74 -15 -103 -25 l-51 -17 0 -121 c0 -67 3 -153
7 -190 8 -84 16 -90 153 -91 88 -1 99 1 150 29 76 42 111 94 117 176 6 80 -9
139 -47 183 -41 47 -131 69 -226 56z"/>
</g>
</svg>
